<?xml version="1.0" encoding="UTF-8"?>
<svg width="124" height="32" viewBox="0 0 124 32" fill="none" xmlns="http://www.w3.org/2000/svg">
<path d="M31.9835 26.6529C31.9835 29.5826 29.5865 31.9796 26.6568 31.9796H5.35014C2.42047 31.9796 0.023468 29.5826 0.023468 26.6529V5.34621C0.023468 2.41654 2.42047 0.0195312 5.35014 0.0195312H26.6568C29.5865 0.0195312 31.9835 2.41654 31.9835 5.34621V26.6529Z" fill="#6935CE"/>
<path d="M8.7049 6.96558H17.7655C19.4366 6.96558 20.7787 7.3468 21.7866 8.11447C22.7945 8.88213 23.301 10.0362 23.301 11.5873C23.301 12.5273 23.0713 13.3315 22.6117 13.9999C22.1521 14.6684 21.4941 15.1906 20.6377 15.5561V15.6084C21.7866 15.8538 22.6587 16.3969 23.2488 17.2377C23.8389 18.0837 24.1366 19.1386 24.1366 20.4128C24.1366 21.1439 24.006 21.828 23.7449 22.4599C23.4838 23.097 23.0765 23.6454 22.5177 24.1049C21.9589 24.5645 21.2487 24.9301 20.3766 25.2016C19.5045 25.4732 18.4705 25.6089 17.2694 25.6089H8.7049V6.96558ZM11.9688 14.7728H17.2955C18.0788 14.7728 18.7316 14.5535 19.2538 14.1044C19.776 13.6553 20.0371 13.0181 20.0371 12.1826C20.0371 11.2426 19.8021 10.5794 19.3321 10.1981C18.8621 9.81691 18.1832 9.62369 17.2955 9.62369H11.9688V14.7728ZM11.9688 22.9456H17.7394C18.7316 22.9456 19.5045 22.6897 20.0476 22.1727C20.5959 21.6609 20.8727 20.9298 20.8727 19.9898C20.8727 19.0655 20.6011 18.3605 20.0476 17.8591C19.494 17.3578 18.7316 17.1176 17.7394 17.1176H11.9688V22.9456Z" fill="white"/>
<path d="M41.566 18H47.218C49.684 18 51.232 16.668 51.232 14.364C51.232 12.636 50.332 11.754 49.324 11.322V11.25C50.134 10.818 50.764 10.044 50.764 8.676C50.764 6.606 49.216 5.4 47.038 5.4H41.566V18ZM43.654 10.566V7.272H46.768C47.992 7.272 48.622 7.866 48.622 8.838C48.622 9.99 47.884 10.566 46.642 10.566H43.654ZM43.654 16.11V12.402H46.912C48.352 12.402 49.072 13.14 49.072 14.256C49.072 15.39 48.28 16.11 46.912 16.11H43.654ZM57.0823 18.162C60.0343 18.162 61.4743 16.074 61.4743 13.356C61.4743 10.638 59.9983 8.55 57.0823 8.55C54.1663 8.55 52.6903 10.638 52.6903 13.356C52.6903 16.092 54.1303 18.162 57.0823 18.162ZM57.0823 16.344C55.5343 16.344 54.7783 15.228 54.7783 13.356C54.7783 11.52 55.5163 10.368 57.0823 10.368C58.6483 10.368 59.3863 11.502 59.3863 13.356C59.3863 15.228 58.6483 16.344 57.0823 16.344ZM67.2776 18.162C70.2296 18.162 71.6696 16.074 71.6696 13.356C71.6696 10.638 70.1936 8.55 67.2776 8.55C64.3616 8.55 62.8856 10.638 62.8856 13.356C62.8856 16.092 64.3256 18.162 67.2776 18.162ZM67.2776 16.344C65.7296 16.344 64.9736 15.228 64.9736 13.356C64.9736 11.52 65.7116 10.368 67.2776 10.368C68.8436 10.368 69.5816 11.502 69.5816 13.356C69.5816 15.228 68.8436 16.344 67.2776 16.344ZM77.2209 18H78.8049V16.2H77.7249C76.8969 16.2 76.5189 15.822 76.5189 14.94V10.458H78.7689V8.712H76.5189V6.246H74.5569V8.712H72.9369V10.458H74.4669V15.3C74.4669 16.902 75.2409 18 77.2209 18ZM84.2651 18.162C86.4251 18.162 88.1171 17.154 88.1171 15.354C88.1171 13.59 87.0371 12.924 85.4171 12.582L83.8331 12.276C83.0591 12.15 82.6091 11.826 82.6091 11.268C82.6091 10.584 83.2391 10.206 84.1571 10.206C85.2191 10.206 85.8491 10.746 85.8851 11.592H87.9011C87.9011 9.792 86.4251 8.55 84.1931 8.55C81.9431 8.55 80.6111 9.72 80.6111 11.25C80.6111 12.834 81.6731 13.68 83.1851 13.986L84.8231 14.292C85.6691 14.472 86.0471 14.832 86.0471 15.354C86.0471 16.002 85.4351 16.398 84.2651 16.398C83.0951 16.398 82.3751 15.822 82.3751 14.904H80.3231C80.3771 16.866 81.7631 18.162 84.2651 18.162ZM93.6565 18H95.2405V16.2H94.1605C93.3325 16.2 92.9545 15.822 92.9545 14.94V10.458H95.2045V8.712H92.9545V6.246H90.9925V8.712H89.3725V10.458H90.9025V15.3C90.9025 16.902 91.6765 18 93.6565 18ZM97.3706 18H99.3506V13.464C99.3506 11.574 100.161 10.494 101.727 10.494H102.519V8.586H101.763C100.593 8.586 99.7286 9.234 99.3506 10.188H99.2786L99.0986 8.712H97.3706V18ZM106.907 18.162C108.149 18.162 109.103 17.694 109.643 16.902H109.715L109.859 18H111.659V11.808C111.659 9.972 110.273 8.55 107.825 8.55C105.485 8.55 104.099 9.864 104.099 11.628H106.043C106.061 10.872 106.655 10.242 107.789 10.242C109.085 10.242 109.625 10.962 109.625 11.826V12.384H107.465C104.801 12.384 103.667 13.644 103.667 15.264C103.667 16.902 104.855 18.162 106.907 18.162ZM107.375 16.524C106.259 16.524 105.719 15.948 105.719 15.192C105.719 14.364 106.331 13.86 107.555 13.86H109.625V14.49C109.625 15.588 108.743 16.524 107.375 16.524ZM114.105 22.122H116.157V16.884H116.229C116.697 17.586 117.525 18.162 118.875 18.162C121.377 18.162 122.745 16.128 122.745 13.356C122.745 10.458 121.269 8.55 118.875 8.55C117.525 8.55 116.697 9.126 116.229 9.828H116.157L115.923 8.712H114.105V22.122ZM118.371 16.344C116.733 16.344 116.085 14.958 116.085 13.356C116.085 11.754 116.733 10.368 118.371 10.368C120.045 10.368 120.675 11.736 120.675 13.356C120.675 14.976 120.063 16.344 118.371 16.344Z" fill="white"/>
<path d="M41.783 30H42.8V25.347H42.836L44.915 28.938H45.005L47.084 25.374H47.12V30H48.137V23.7H46.958L44.987 27.138H44.951L42.98 23.7H41.783V30ZM52.6809 23.7H51.3579L49.1079 29.91V30H50.2239L50.7189 28.542H53.2929L53.7879 30H54.9399V29.91L52.6809 23.7ZM51.0339 27.615L51.9879 24.807H52.0239L52.9779 27.615H51.0339ZM56.7297 30H57.7917V24.654H59.6907V23.7H54.8307V24.654H56.7297V30ZM60.7059 30H64.9539V29.055H61.7589V27.228H64.6749V26.274H61.7589V24.654H64.9539V23.7H60.7059V30ZM69.619 27.498C70.411 27.237 70.924 26.562 70.924 25.644C70.924 24.573 70.168 23.7 68.863 23.7H66.199V30H67.252V27.624H68.512L70.033 30H71.23V29.91L69.619 27.498ZM67.252 24.654H68.8C69.493 24.654 69.835 25.068 69.835 25.653C69.835 26.247 69.502 26.67 68.8 26.67H67.252V24.654ZM72.2283 30H73.2903V23.7H72.2283V30ZM77.8352 23.7H76.5122L74.2622 29.91V30H75.3782L75.8732 28.542H78.4472L78.9422 30H80.0942V29.91L77.8352 23.7ZM76.1882 27.615L77.1422 24.807H77.1782L78.1322 27.615H76.1882ZM81.0789 30H85.1019V29.046H82.1319V23.7H81.0789V30ZM88.6639 30H90.7879C92.7139 30 93.7939 28.605 93.7939 26.85C93.7939 24.96 92.6239 23.7 90.7879 23.7H88.6639V30ZM89.6809 29.055V24.654H90.7069C92.0479 24.654 92.7139 25.545 92.7139 26.85C92.7139 28.164 92.0479 29.055 90.7069 29.055H89.6809ZM95.0008 30H99.2488V29.055H96.0538V27.228H98.9698V26.274H96.0538V24.654H99.2488V23.7H95.0008V30ZM102.546 30.081C104.193 30.081 105.021 29.343 105.021 28.218C105.021 27.138 104.283 26.589 103.113 26.346L102.258 26.166C101.628 26.031 101.34 25.779 101.34 25.383C101.34 24.861 101.754 24.573 102.537 24.573C103.41 24.573 103.806 24.996 103.842 25.572H104.913C104.904 24.411 103.941 23.619 102.555 23.619C101.124 23.619 100.251 24.321 100.251 25.383C100.251 26.445 100.953 26.931 102.042 27.165L102.96 27.363C103.59 27.498 103.932 27.741 103.932 28.236C103.932 28.821 103.491 29.136 102.546 29.136C101.691 29.136 101.169 28.731 101.115 27.993H100.044C100.098 29.253 100.953 30.081 102.546 30.081ZM106.18 30H107.242V23.7H106.18V30ZM111.328 30.081C113.002 30.081 114.064 28.974 114.064 27.255V26.652H111.508V27.588H113.002C112.948 28.434 112.408 29.118 111.328 29.118C110.041 29.118 109.528 28.137 109.528 26.868C109.528 25.599 110.041 24.591 111.328 24.591C112.318 24.591 112.813 25.122 112.903 25.797H113.983C113.857 24.555 112.894 23.619 111.328 23.619C109.438 23.619 108.448 24.978 108.448 26.868C108.448 28.731 109.42 30.081 111.328 30.081ZM115.268 30H116.303V25.401H116.339L119.174 30H120.389V23.7H119.345V28.326H119.309L116.474 23.7H115.268V30Z" fill="#D9E3F5"/>
</svg>
