<?xml version="1.0" encoding="UTF-8"?>
<svg width="155" height="32" viewBox="0 0 155 32" fill="none" xmlns="http://www.w3.org/2000/svg">
<path d="M31.9835 26.6529C31.9835 29.5826 29.5865 31.9796 26.6568 31.9796H5.35014C2.42047 31.9796 0.023468 29.5826 0.023468 26.6529V5.34621C0.023468 2.41654 2.42047 0.0195312 5.35014 0.0195312H26.6568C29.5865 0.0195312 31.9835 2.41654 31.9835 5.34621V26.6529Z" fill="#6935CE"/>
<path d="M8.70493 6.96558H17.7655C19.4366 6.96558 20.7787 7.3468 21.7866 8.11447C22.7945 8.88213 23.3011 10.0362 23.3011 11.5873C23.3011 12.5273 23.0713 13.3315 22.6117 13.9999C22.1522 14.6684 21.4942 15.1906 20.6377 15.5561V15.6084C21.7866 15.8538 22.6587 16.3969 23.2488 17.2377C23.839 18.0837 24.1366 19.1386 24.1366 20.4128C24.1366 21.1439 24.0061 21.828 23.745 22.4599C23.4838 23.097 23.0765 23.6454 22.5177 24.1049C21.9589 24.5645 21.2487 24.9301 20.3766 25.2016C19.5045 25.4732 18.4705 25.6089 17.2694 25.6089H8.70493V6.96558ZM11.9688 14.7728H17.2955C18.0788 14.7728 18.7316 14.5535 19.2538 14.1044C19.7761 13.6553 20.0372 13.0181 20.0372 12.1826C20.0372 11.2426 19.8022 10.5794 19.3322 10.1981C18.8622 9.81691 18.1833 9.62369 17.2955 9.62369H11.9688V14.7728ZM11.9688 22.9456H17.7394C18.7316 22.9456 19.5045 22.6897 20.0476 22.1727C20.5959 21.6609 20.8727 20.9298 20.8727 19.9898C20.8727 19.0655 20.6012 18.3605 20.0476 17.8591C19.4941 17.3578 18.7316 17.1176 17.7394 17.1176H11.9688V22.9456Z" fill="white"/>
<path d="M42.088 24.3333H49.624C52.912 24.3333 54.976 22.5573 54.976 19.4853C54.976 17.1813 53.776 16.0053 52.432 15.4293V15.3333C53.512 14.7573 54.352 13.7253 54.352 11.9013C54.352 9.14125 52.288 7.53325 49.384 7.53325H42.088V24.3333ZM44.872 14.4213V10.0293H49.024C50.656 10.0293 51.496 10.8213 51.496 12.1173C51.496 13.6533 50.512 14.4213 48.856 14.4213H44.872ZM44.872 21.8133V16.8693H49.216C51.136 16.8693 52.096 17.8533 52.096 19.3413C52.096 20.8533 51.04 21.8133 49.216 21.8133H44.872ZM62.7764 24.5493C66.7124 24.5493 68.6324 21.7653 68.6324 18.1413C68.6324 14.5173 66.6644 11.7333 62.7764 11.7333C58.8884 11.7333 56.9204 14.5173 56.9204 18.1413C56.9204 21.7893 58.8404 24.5493 62.7764 24.5493ZM62.7764 22.1253C60.7124 22.1253 59.7044 20.6373 59.7044 18.1413C59.7044 15.6933 60.6884 14.1573 62.7764 14.1573C64.8644 14.1573 65.8484 15.6693 65.8484 18.1413C65.8484 20.6373 64.8644 22.1253 62.7764 22.1253ZM76.3701 24.5493C80.3061 24.5493 82.2261 21.7653 82.2261 18.1413C82.2261 14.5173 80.2581 11.7333 76.3701 11.7333C72.4821 11.7333 70.5141 14.5173 70.5141 18.1413C70.5141 21.7893 72.4341 24.5493 76.3701 24.5493ZM76.3701 22.1253C74.3061 22.1253 73.2981 20.6373 73.2981 18.1413C73.2981 15.6933 74.2821 14.1573 76.3701 14.1573C78.4581 14.1573 79.4421 15.6693 79.4421 18.1413C79.4421 20.6373 78.4581 22.1253 76.3701 22.1253ZM89.6279 24.3333H91.7399V21.9333H90.2999C89.1959 21.9333 88.6919 21.4293 88.6919 20.2533V14.2773H91.6919V11.9493H88.6919V8.66125H86.0759V11.9493H83.9159V14.2773H85.9559V20.7333C85.9559 22.8693 86.9879 24.3333 89.6279 24.3333ZM99.0201 24.5493C101.9 24.5493 104.156 23.2053 104.156 20.8053C104.156 18.4533 102.716 17.5653 100.556 17.1093L98.4441 16.7013C97.4121 16.5333 96.8121 16.1013 96.8121 15.3573C96.8121 14.4453 97.6521 13.9413 98.8761 13.9413C100.292 13.9413 101.132 14.6613 101.18 15.7893H103.868C103.868 13.3893 101.9 11.7333 98.9241 11.7333C95.9241 11.7333 94.1481 13.2933 94.1481 15.3333C94.1481 17.4453 95.5641 18.5733 97.5801 18.9813L99.7641 19.3893C100.892 19.6293 101.396 20.1093 101.396 20.8053C101.396 21.6693 100.58 22.1973 99.0201 22.1973C97.4601 22.1973 96.5001 21.4293 96.5001 20.2053H93.7641C93.8361 22.8213 95.6841 24.5493 99.0201 24.5493ZM111.542 24.3333H113.654V21.9333H112.214C111.11 21.9333 110.606 21.4293 110.606 20.2533V14.2773H113.606V11.9493H110.606V8.66125H107.99V11.9493H105.83V14.2773H107.87V20.7333C107.87 22.8693 108.902 24.3333 111.542 24.3333ZM116.494 24.3333H119.134V18.2853C119.134 15.7653 120.214 14.3253 122.302 14.3253H123.358V11.7813H122.35C120.79 11.7813 119.638 12.6453 119.134 13.9173H119.038L118.798 11.9493H116.494V24.3333ZM129.209 24.5493C130.865 24.5493 132.137 23.9253 132.857 22.8693H132.953L133.145 24.3333H135.545V16.0773C135.545 13.6293 133.697 11.7333 130.433 11.7333C127.313 11.7333 125.465 13.4853 125.465 15.8373H128.057C128.081 14.8293 128.873 13.9893 130.385 13.9893C132.113 13.9893 132.833 14.9493 132.833 16.1013V16.8453H129.953C126.401 16.8453 124.889 18.5253 124.889 20.6853C124.889 22.8693 126.473 24.5493 129.209 24.5493ZM129.833 22.3653C128.345 22.3653 127.625 21.5973 127.625 20.5893C127.625 19.4853 128.441 18.8133 130.073 18.8133H132.833V19.6533C132.833 21.1173 131.657 22.3653 129.833 22.3653ZM138.807 29.8293H141.543V22.8453H141.639C142.263 23.7813 143.367 24.5493 145.167 24.5493C148.503 24.5493 150.327 21.8373 150.327 18.1413C150.327 14.2773 148.359 11.7333 145.167 11.7333C143.367 11.7333 142.263 12.5013 141.639 13.4373H141.543L141.231 11.9493H138.807V29.8293ZM144.495 22.1253C142.311 22.1253 141.447 20.2773 141.447 18.1413C141.447 16.0053 142.311 14.1573 144.495 14.1573C146.727 14.1573 147.567 15.9813 147.567 18.1413C147.567 20.3013 146.751 22.1253 144.495 22.1253Z" fill="#0D172A"/>
</svg>
