<?xml version="1.0" standalone="yes"?>
<svg width="116" height="28" viewBox="0 0 116 28" fill="none" xmlns="http://www.w3.org/2000/svg">
<path d="M14.6969 28.0001C6.59275 28.0001 0 21.7192 0 14.0001C0 6.28094 6.59275 0 14.6969 0C20.106 0 25.0633 2.8191 27.6342 7.35639L28.0001 7.99912L21.7001 14.0001L28.0001 20.001L27.6342 20.6437C25.0633 25.181 20.106 28.0001 14.6969 28.0001ZM14.6969 1.96319C7.72867 1.96319 2.06183 7.36276 2.06183 14.0001C2.06183 20.6374 7.72867 26.0369 14.6969 26.0369C19.091 26.0369 23.1415 23.8733 25.4387 20.3414L20.2428 15.3905L18.8937 16.676L17.8723 17.6496C16.8096 18.7378 15.3078 19.3614 13.7487 19.3614C10.6464 19.3614 8.12003 16.956 8.12003 14.0001C8.12003 11.0441 10.6432 8.63867 13.7487 8.63867C15.3078 8.63867 16.8096 9.26231 17.8723 10.3505L20.246 12.6096L25.4419 7.65867C23.1415 4.13002 19.091 1.96319 14.6969 1.96319ZM13.7487 10.6019C11.7823 10.6019 10.1819 12.126 10.1819 14.0001C10.1819 15.8742 11.7823 17.3951 13.7487 17.3951C14.7414 17.3951 15.696 16.9973 16.3705 16.3005L16.3992 16.2719L18.7855 14.0001L16.3705 11.6996C15.696 11.0028 14.7382 10.6019 13.7487 10.6019Z" fill="#FBDC8E"/>
<path d="M39.277 13.171C39.277 11.743 39.606 10.462 40.264 9.32795C40.936 8.19395 41.839 7.31194 42.973 6.68194C44.121 6.03794 45.374 5.71594 46.732 5.71594C48.286 5.71594 49.665 6.10094 50.8691 6.87094C52.0871 7.62695 52.9691 8.70495 53.5151 10.105H50.6381C50.26 9.33495 49.735 8.76095 49.063 8.38295C48.391 8.00495 47.614 7.81595 46.732 7.81595C45.766 7.81595 44.905 8.03295 44.149 8.46695C43.393 8.90095 42.798 9.52395 42.364 10.336C41.944 11.148 41.734 12.093 41.734 13.171C41.734 14.249 41.944 15.194 42.364 16.006C42.798 16.818 43.393 17.448 44.149 17.896C44.905 18.33 45.766 18.547 46.732 18.547C47.614 18.547 48.391 18.358 49.063 17.98C49.735 17.602 50.26 17.028 50.6381 16.258H53.5151C52.9691 17.658 52.0871 18.736 50.8691 19.492C49.665 20.248 48.286 20.626 46.732 20.626C45.36 20.626 44.107 20.311 42.973 19.681C41.839 19.037 40.936 18.148 40.264 17.014C39.606 15.88 39.277 14.599 39.277 13.171ZM58.93 10.609C59.28 10.021 59.742 9.56595 60.316 9.24395C60.904 8.90795 61.597 8.73995 62.395 8.73995V11.218H61.786C60.848 11.218 60.134 11.456 59.644 11.932C59.168 12.408 58.93 13.234 58.93 14.41V20.5H56.536V8.92895H58.93V10.609ZM69.8334 20.689C68.7414 20.689 67.7544 20.444 66.8724 19.954C65.9904 19.45 65.2974 18.75 64.7934 17.854C64.2894 16.944 64.0374 15.894 64.0374 14.704C64.0374 13.528 64.2964 12.485 64.8144 11.575C65.3324 10.665 66.0394 9.96496 66.9354 9.47495C67.8314 8.98495 68.8324 8.73995 69.9384 8.73995C71.0444 8.73995 72.0454 8.98495 72.9414 9.47495C73.8374 9.96496 74.5444 10.665 75.0624 11.575C75.5804 12.485 75.8394 13.528 75.8394 14.704C75.8394 15.88 75.5734 16.923 75.0414 17.833C74.5094 18.743 73.7814 19.45 72.8574 19.954C71.9474 20.444 70.9394 20.689 69.8334 20.689ZM69.8334 18.61C70.4494 18.61 71.0234 18.463 71.5554 18.169C72.1014 17.875 72.5424 17.434 72.8784 16.846C73.2144 16.258 73.3824 15.544 73.3824 14.704C73.3824 13.864 73.2214 13.157 72.8994 12.583C72.5774 11.995 72.1504 11.554 71.6184 11.26C71.0864 10.966 70.5124 10.819 69.8964 10.819C69.2804 10.819 68.7064 10.966 68.1744 11.26C67.6564 11.554 67.2434 11.995 66.9354 12.583C66.6274 13.157 66.4734 13.864 66.4734 14.704C66.4734 15.95 66.7884 16.916 67.4184 17.602C68.0624 18.274 68.8674 18.61 69.8334 18.61ZM84.2628 8.73995C85.1728 8.73995 85.9848 8.92895 86.6988 9.30695C87.4268 9.68495 87.9938 10.245 88.3998 10.987C88.8058 11.729 89.0088 12.625 89.0088 13.675V20.5H86.6358V14.032C86.6358 12.996 86.3768 12.205 85.8588 11.659C85.3408 11.099 84.6338 10.819 83.7378 10.819C82.8418 10.819 82.1278 11.099 81.5958 11.659C81.0778 12.205 80.8188 12.996 80.8188 14.032V20.5H78.4248V8.92895H80.8188V10.252C81.2108 9.77595 81.7078 9.40495 82.3098 9.13895C82.9258 8.87295 83.5768 8.73995 84.2628 8.73995ZM97.3003 20.689C96.2083 20.689 95.2213 20.444 94.3393 19.954C93.4573 19.45 92.7643 18.75 92.2603 17.854C91.7563 16.944 91.5043 15.894 91.5043 14.704C91.5043 13.528 91.7633 12.485 92.2813 11.575C92.7993 10.665 93.5063 9.96496 94.4023 9.47495C95.2983 8.98495 96.2993 8.73995 97.4053 8.73995C98.5113 8.73995 99.5123 8.98495 100.408 9.47495C101.304 9.96496 102.011 10.665 102.529 11.575C103.047 12.485 103.306 13.528 103.306 14.704C103.306 15.88 103.04 16.923 102.508 17.833C101.976 18.743 101.248 19.45 100.324 19.954C99.4143 20.444 98.4063 20.689 97.3003 20.689ZM97.3003 18.61C97.9163 18.61 98.4903 18.463 99.0223 18.169C99.5683 17.875 100.009 17.434 100.345 16.846C100.681 16.258 100.849 15.544 100.849 14.704C100.849 13.864 100.688 13.157 100.366 12.583C100.044 11.995 99.6173 11.554 99.0853 11.26C98.5533 10.966 97.9793 10.819 97.3633 10.819C96.7473 10.819 96.1733 10.966 95.6413 11.26C95.1233 11.554 94.7103 11.995 94.4023 12.583C94.0943 13.157 93.9403 13.864 93.9403 14.704C93.9403 15.95 94.2553 16.916 94.8853 17.602C95.5293 18.274 96.3343 18.61 97.3003 18.61ZM110.092 20.689C109.182 20.689 108.363 20.528 107.635 20.206C106.921 19.87 106.354 19.422 105.934 18.862C105.514 18.288 105.29 17.651 105.262 16.951H107.74C107.782 17.441 108.013 17.854 108.433 18.19C108.867 18.512 109.406 18.673 110.05 18.673C110.722 18.673 111.24 18.547 111.604 18.295C111.982 18.029 112.171 17.693 112.171 17.287C112.171 16.853 111.961 16.531 111.541 16.321C111.135 16.111 110.484 15.88 109.588 15.628C108.72 15.39 108.013 15.159 107.467 14.935C106.921 14.711 106.445 14.368 106.039 13.906C105.647 13.444 105.451 12.835 105.451 12.079C105.451 11.463 105.633 10.903 105.997 10.399C106.361 9.88096 106.879 9.47495 107.551 9.18095C108.237 8.88695 109.021 8.73995 109.903 8.73995C111.219 8.73995 112.276 9.07595 113.074 9.74795C113.886 10.406 114.32 11.309 114.376 12.457H111.982C111.94 11.939 111.73 11.526 111.352 11.218C110.974 10.91 110.463 10.756 109.819 10.756C109.189 10.756 108.706 10.875 108.37 11.113C108.034 11.351 107.866 11.666 107.866 12.058C107.866 12.366 107.978 12.625 108.202 12.835C108.426 13.045 108.699 13.213 109.021 13.339C109.343 13.451 109.819 13.598 110.449 13.78C111.289 14.004 111.975 14.235 112.507 14.473C113.053 14.697 113.522 15.033 113.914 15.481C114.306 15.929 114.509 16.524 114.523 17.266C114.523 17.924 114.341 18.512 113.977 19.03C113.613 19.548 113.095 19.954 112.423 20.248C111.765 20.542 110.988 20.689 110.092 20.689Z" fill="white"/>
</svg>
