<?xml version="1.0" encoding="UTF-8"?>
<svg width="111" height="32" viewBox="0 0 111 32" fill="none" xmlns="http://www.w3.org/2000/svg">
<path d="M31.9835 26.6529C31.9835 29.5826 29.5865 31.9796 26.6568 31.9796H5.35013C2.42046 31.9796 0.0234528 29.5826 0.0234528 26.6529V5.34621C0.0234528 2.41654 2.42046 0.0195312 5.35013 0.0195312H26.6568C29.5865 0.0195312 31.9835 2.41654 31.9835 5.34621V26.6529Z" fill="#00D1B2"/>
<g clip-path="url(#clip0)">
<path d="M11 18.9812L11.9983 11.9932L15.9915 8L20.9829 12.9915L17.9881 15.9864L21.9812 19.9795L15.9915 23.9727L11 18.9812Z" fill="white"/>
</g>
<path d="M42.088 24H49.624C52.912 24 54.976 22.224 54.976 19.152C54.976 16.848 53.776 15.672 52.432 15.096V15C53.512 14.424 54.352 13.392 54.352 11.568C54.352 8.808 52.288 7.2 49.384 7.2H42.088V24ZM44.872 14.088V9.696H49.024C50.656 9.696 51.496 10.488 51.496 11.784C51.496 13.32 50.512 14.088 48.856 14.088H44.872ZM44.872 21.48V16.536H49.216C51.136 16.536 52.096 17.52 52.096 19.008C52.096 20.52 51.04 21.48 49.216 21.48H44.872ZM62.0564 24.192C63.8324 24.192 65.0084 23.448 65.6804 22.368H65.7764L65.9924 24H68.4164V11.616H65.6804V18.456C65.6804 20.52 64.5764 21.744 62.8484 21.744C61.1204 21.744 60.3284 20.736 60.3284 19.008V11.616H57.5924V19.68C57.5924 22.488 59.2964 24.192 62.0564 24.192ZM71.6583 24H74.3943V6.24H71.6583V24ZM91.6263 11.4C89.6583 11.4 88.4103 12.288 87.7623 13.344H87.6903C86.9943 12.096 85.6983 11.4 83.9703 11.4C82.1703 11.4 81.0663 12.168 80.3943 13.224H80.2983L80.0823 11.616H77.6583V24H80.3943V17.16C80.3943 15.096 81.4983 13.872 83.1543 13.872C84.8583 13.872 85.5543 14.904 85.5543 16.584V24H88.2663V17.16C88.2663 15.096 89.2503 13.872 90.9062 13.872C92.6103 13.872 93.3063 14.904 93.3063 16.584V24H96.0423V15.912C96.0423 13.128 94.3623 11.4 91.6263 11.4ZM102.819 24.216C104.475 24.216 105.747 23.592 106.467 22.536H106.563L106.755 24H109.155V15.744C109.155 13.296 107.307 11.4 104.043 11.4C100.923 11.4 99.0745 13.152 99.0745 15.504H101.667C101.691 14.496 102.483 13.656 103.995 13.656C105.723 13.656 106.443 14.616 106.443 15.768V16.512H103.562C100.011 16.512 98.4985 18.192 98.4985 20.352C98.4985 22.536 100.083 24.216 102.819 24.216ZM103.443 22.032C101.955 22.032 101.235 21.264 101.235 20.256C101.235 19.152 102.051 18.48 103.683 18.48H106.443V19.32C106.443 20.784 105.267 22.032 103.443 22.032Z" fill="white"/>
<defs>
<clipPath id="clip0">
<rect width="10.9812" height="16" fill="white" transform="translate(11 8)"/>
</clipPath>
</defs>
</svg>
