<?xml version="1.0" encoding="UTF-8"?>
<svg width="167" height="32" viewBox="0 0 167 32" fill="none" xmlns="http://www.w3.org/2000/svg">
<g clip-path="url(#clip0)">
<path d="M0 17.0409V4L11.2941 10.5205V14.8675L3.76471 10.5205V19.2144L0 17.0409Z" fill="#00B0FF"/>
<path d="M11.2965 10.5205L22.5906 4V17.0409L15.0612 21.3879L11.2965 19.2144L18.8259 14.8675V10.5205L11.2965 14.8675V10.5205Z" fill="#0081CB"/>
<path d="M11.2965 19.2148V23.5618L18.8259 27.9088V23.5618L11.2965 19.2148Z" fill="#00B0FF"/>
<path d="M18.8209 27.9084L30.115 21.3879V12.694L26.3503 14.8675V19.2144L18.8209 23.5614V27.9084ZM26.3503 10.5205V6.17349L30.115 4V8.34698L26.3503 10.5205Z" fill="#0081CB"/>
</g>
<path d="M42.088 23H44.8V10.592H44.896L50.44 20.168H50.68L56.224 10.664H56.32V23H59.032V6.2H55.888L50.632 15.368H50.536L45.28 6.2H42.088V23ZM66.3732 23.216C68.0292 23.216 69.3012 22.592 70.0212 21.536H70.1172L70.3092 23H72.7092V14.744C72.7092 12.296 70.8612 10.4 67.5972 10.4C64.4772 10.4 62.6292 12.152 62.6292 14.504H65.2212C65.2452 13.496 66.0372 12.656 67.5492 12.656C69.2772 12.656 69.9972 13.616 69.9972 14.768V15.512H67.1172C63.5652 15.512 62.0532 17.192 62.0532 19.352C62.0532 21.536 63.6372 23.216 66.3732 23.216ZM66.9972 21.032C65.5092 21.032 64.7892 20.264 64.7892 19.256C64.7892 18.152 65.6052 17.48 67.2372 17.48H69.9972V18.32C69.9972 19.784 68.8212 21.032 66.9972 21.032ZM80.6748 23H82.7868V20.6H81.3468C80.2428 20.6 79.7388 20.096 79.7388 18.92V12.944H82.7388V10.616H79.7388V7.328H77.1228V10.616H74.9628V12.944H77.0028V19.4C77.0028 21.536 78.0348 23 80.6748 23ZM90.667 23.216C93.619 23.216 95.707 21.488 96.043 19.232H93.379C93.091 20.24 92.179 20.912 90.667 20.912C88.651 20.912 87.643 19.544 87.643 17.576H96.211V16.424C96.211 13.016 94.243 10.4 90.619 10.4C86.707 10.4 84.811 13.256 84.811 16.808C84.811 20.408 86.899 23.216 90.667 23.216ZM87.667 15.632C87.739 14.024 88.627 12.728 90.619 12.728C92.491 12.728 93.379 14 93.403 15.632H87.667ZM98.9161 23H101.556V16.952C101.556 14.432 102.636 12.992 104.724 12.992H105.78V10.448H104.772C103.212 10.448 102.06 11.312 101.556 12.584H101.46L101.22 10.616H98.9161V23ZM108.148 8.528H111.124V5.576H108.148V8.528ZM108.268 23H111.004V10.616H108.268V23ZM117.772 23.216C119.428 23.216 120.7 22.592 121.42 21.536H121.516L121.708 23H124.108V14.744C124.108 12.296 122.26 10.4 118.996 10.4C115.876 10.4 114.028 12.152 114.028 14.504H116.62C116.644 13.496 117.436 12.656 118.948 12.656C120.676 12.656 121.396 13.616 121.396 14.768V15.512H118.516C114.964 15.512 113.452 17.192 113.452 19.352C113.452 21.536 115.036 23.216 117.772 23.216ZM118.396 21.032C116.908 21.032 116.188 20.264 116.188 19.256C116.188 18.152 117.004 17.48 118.636 17.48H121.396V18.32C121.396 19.784 120.22 21.032 118.396 21.032ZM127.369 23H130.105V5.24H127.369V23ZM133.537 17.216H140.881V14.72H133.537V17.216ZM151.341 23.216C155.349 23.216 158.085 20.936 158.085 16.76V6.2H155.253V16.712C155.253 18.992 154.173 20.672 151.341 20.672C148.557 20.672 147.453 18.992 147.453 16.712V6.2H144.645V16.76C144.645 20.936 147.405 23.216 151.341 23.216ZM162.018 23H164.85V6.2H162.018V23Z" fill="white"/>
<defs>
<clipPath id="clip0">
<rect width="30.1176" height="24" fill="white" transform="translate(0 4)"/>
</clipPath>
</defs>
</svg>
