<?xml version="1.0" encoding="UTF-8"?>
<svg width="90" height="24" viewBox="0 0 90 24" fill="none" xmlns="http://www.w3.org/2000/svg">
<circle cx="12" cy="12" r="12" fill="#304FFE"/>
<path d="M11.9933 16.36L7.08 12.54L6 13.38L12 18.0466L18 13.38L16.9133 12.5333L11.9933 16.36V16.36ZM12 14.6666L16.9067 10.8466L18 9.99998L12 5.33331L6 9.99998L7.08667 10.8466L12 14.6666Z" fill="white"/>
<path d="M43.5488 19H40.9121L35.7793 10.5801V19H33.1426V6.20312H35.7793L40.9209 14.6406V6.20312H43.5488V19ZM50.0615 19.1758C48.667 19.1758 47.5303 18.748 46.6514 17.8926C45.7783 17.0371 45.3418 15.8975 45.3418 14.4736V14.2275C45.3418 13.2725 45.5264 12.4199 45.8955 11.6699C46.2646 10.9141 46.7861 10.334 47.46 9.92969C48.1396 9.51953 48.9131 9.31445 49.7803 9.31445C51.0811 9.31445 52.1035 9.72461 52.8477 10.5449C53.5977 11.3652 53.9727 12.5283 53.9727 14.0342V15.0713H47.917C47.999 15.6924 48.2451 16.1904 48.6553 16.5654C49.0713 16.9404 49.5957 17.1279 50.2285 17.1279C51.207 17.1279 51.9717 16.7734 52.5225 16.0645L53.7705 17.4619C53.3896 18.001 52.874 18.4229 52.2236 18.7275C51.5732 19.0264 50.8525 19.1758 50.0615 19.1758ZM49.7715 11.3711C49.2676 11.3711 48.8574 11.541 48.541 11.8809C48.2305 12.2207 48.0312 12.707 47.9434 13.3398H51.4766V13.1377C51.4648 12.5752 51.3125 12.1416 51.0195 11.8369C50.7266 11.5264 50.3105 11.3711 49.7715 11.3711ZM60.7666 11.8721C60.4209 11.8252 60.1162 11.8018 59.8525 11.8018C58.8916 11.8018 58.2617 12.127 57.9629 12.7773V19H55.4229V9.49023H57.8223L57.8926 10.624C58.4023 9.75098 59.1084 9.31445 60.0107 9.31445C60.292 9.31445 60.5557 9.35254 60.8018 9.42871L60.7666 11.8721ZM66.1982 19.1758C64.8037 19.1758 63.667 18.748 62.7881 17.8926C61.915 17.0371 61.4785 15.8975 61.4785 14.4736V14.2275C61.4785 13.2725 61.6631 12.4199 62.0322 11.6699C62.4014 10.9141 62.9229 10.334 63.5967 9.92969C64.2764 9.51953 65.0498 9.31445 65.917 9.31445C67.2178 9.31445 68.2402 9.72461 68.9844 10.5449C69.7344 11.3652 70.1094 12.5283 70.1094 14.0342V15.0713H64.0537C64.1357 15.6924 64.3818 16.1904 64.792 16.5654C65.208 16.9404 65.7324 17.1279 66.3652 17.1279C67.3438 17.1279 68.1084 16.7734 68.6592 16.0645L69.9072 17.4619C69.5264 18.001 69.0107 18.4229 68.3604 18.7275C67.71 19.0264 66.9893 19.1758 66.1982 19.1758ZM65.9082 11.3711C65.4043 11.3711 64.9941 11.541 64.6777 11.8809C64.3672 12.2207 64.168 12.707 64.0801 13.3398H67.6133V13.1377C67.6016 12.5752 67.4492 12.1416 67.1562 11.8369C66.8633 11.5264 66.4473 11.3711 65.9082 11.3711ZM77.2549 18.0332C76.6279 18.7949 75.7607 19.1758 74.6533 19.1758C73.6338 19.1758 72.8545 18.8828 72.3154 18.2969C71.7822 17.7109 71.5098 16.8525 71.498 15.7217V9.49023H74.0381V15.6338C74.0381 16.624 74.4893 17.1191 75.3916 17.1191C76.2529 17.1191 76.8447 16.8203 77.167 16.2227V9.49023H79.7158V19H77.3252L77.2549 18.0332ZM86.7822 16.3721C86.7822 16.0615 86.627 15.8184 86.3164 15.6426C86.0117 15.4609 85.5195 15.2998 84.8398 15.1592C82.5781 14.6846 81.4473 13.7236 81.4473 12.2764C81.4473 11.4326 81.7959 10.7295 82.4932 10.167C83.1963 9.59863 84.1133 9.31445 85.2441 9.31445C86.4512 9.31445 87.415 9.59863 88.1357 10.167C88.8623 10.7354 89.2256 11.4736 89.2256 12.3818H86.6855C86.6855 12.0186 86.5684 11.7197 86.334 11.4854C86.0996 11.2451 85.7334 11.125 85.2354 11.125C84.8076 11.125 84.4766 11.2217 84.2422 11.415C84.0078 11.6084 83.8906 11.8545 83.8906 12.1533C83.8906 12.4346 84.0225 12.6631 84.2861 12.8389C84.5557 13.0088 85.0068 13.1582 85.6396 13.2871C86.2725 13.4102 86.8057 13.5508 87.2393 13.709C88.5811 14.2012 89.252 15.0537 89.252 16.2666C89.252 17.1338 88.8799 17.8369 88.1357 18.376C87.3916 18.9092 86.4307 19.1758 85.2529 19.1758C84.4561 19.1758 83.7471 19.0352 83.126 18.7539C82.5107 18.4668 82.0273 18.0771 81.6758 17.585C81.3242 17.0869 81.1484 16.5508 81.1484 15.9766H83.5566C83.5801 16.4277 83.7471 16.7734 84.0576 17.0137C84.3682 17.2539 84.7842 17.374 85.3057 17.374C85.792 17.374 86.1582 17.2832 86.4043 17.1016C86.6562 16.9141 86.7822 16.6709 86.7822 16.3721Z" fill="white"/>
</svg>
