<?xml version="1.0" encoding="UTF-8"?>
<svg width="88" height="24" viewBox="0 0 88 24" fill="none" xmlns="http://www.w3.org/2000/svg">
<rect width="23.9999" height="23.9999" rx="2.99999" fill="#221A85"/>
<path fill-rule="evenodd" clip-rule="evenodd" d="M13.3736 6.49615C12.7661 5.43504 11.2357 5.43504 10.6282 6.49615L5.01715 16.2957C4.26005 17.6179 5.62646 19.141 7.02283 18.5314L11.368 16.1069C11.7715 15.9307 12.2303 15.9307 12.6339 16.1069L16.979 18.5314C18.3754 19.141 19.7418 17.618 18.9847 16.2957L13.3736 6.49615ZM12.0509 13.6094C12.8518 13.6094 13.5009 12.9602 13.5009 12.1594C13.5009 11.3586 12.8518 10.7094 12.0509 10.7094C11.2501 10.7094 10.6009 11.3586 10.6009 12.1594C10.6009 12.9602 11.2501 13.6094 12.0509 13.6094Z" fill="#EBEAFC"/>
<path d="M9.00038 9.33862L7.02262 8.47509C5.62624 7.86541 4.25984 9.38849 5.01694 10.7108L6.61583 13.5032L9.00038 9.33862Z" fill="#8880EB"/>
<path d="M17.3856 13.5032L15.001 9.33862L16.9788 8.47509C18.3751 7.86541 19.7415 9.38849 18.9844 10.7108L17.3856 13.5032Z" fill="#8880EB"/>
<path d="M29.6778 17L33.5178 6.50004H35.6778L39.5178 17H37.4778L36.6378 14.57H32.5428L31.6878 17H29.6778ZM33.0678 13.07H36.1128L34.5828 8.70503L33.0678 13.07ZM40.8253 17V9.56003H42.5353L42.7153 10.955C42.9853 10.475 43.3503 10.095 43.8103 9.81503C44.2803 9.52503 44.8303 9.38003 45.4603 9.38003V11.405H44.9203C44.5003 11.405 44.1253 11.47 43.7953 11.6C43.4653 11.73 43.2053 11.955 43.0153 12.275C42.8353 12.595 42.7453 13.04 42.7453 13.61V17H40.8253ZM50.0876 17C49.3076 17 48.6826 16.81 48.2126 16.43C47.7426 16.05 47.5076 15.375 47.5076 14.405V11.165H46.2326V9.56003H47.5076L47.7326 7.56503H49.4276V9.56003H51.4376V11.165H49.4276V14.42C49.4276 14.78 49.5026 15.03 49.6526 15.17C49.8126 15.3 50.0826 15.365 50.4626 15.365H51.3926V17H50.0876ZM56.5106 17.18C55.7606 17.18 55.0956 17.02 54.5156 16.7C53.9356 16.38 53.4806 15.93 53.1506 15.35C52.8206 14.77 52.6556 14.1 52.6556 13.34C52.6556 12.57 52.8156 11.885 53.1356 11.285C53.4656 10.685 53.9156 10.22 54.4856 9.89003C55.0656 9.55003 55.7456 9.38003 56.5256 9.38003C57.2556 9.38003 57.9006 9.54003 58.4606 9.86003C59.0206 10.18 59.4556 10.62 59.7656 11.18C60.0856 11.73 60.2456 12.345 60.2456 13.025C60.2456 13.135 60.2406 13.25 60.2306 13.37C60.2306 13.49 60.2256 13.615 60.2156 13.745H54.5606C54.6006 14.325 54.8006 14.78 55.1606 15.11C55.5306 15.44 55.9756 15.605 56.4956 15.605C56.8856 15.605 57.2106 15.52 57.4706 15.35C57.7406 15.17 57.9406 14.94 58.0706 14.66H60.0206C59.8806 15.13 59.6456 15.56 59.3156 15.95C58.9956 16.33 58.5956 16.63 58.1156 16.85C57.6456 17.07 57.1106 17.18 56.5106 17.18ZM56.5256 10.94C56.0556 10.94 55.6406 11.075 55.2806 11.345C54.9206 11.605 54.6906 12.005 54.5906 12.545H58.2956C58.2656 12.055 58.0856 11.665 57.7556 11.375C57.4256 11.085 57.0156 10.94 56.5256 10.94ZM61.8604 17V9.56003H63.5554L63.7204 10.565C63.9604 10.205 64.2754 9.92003 64.6654 9.71003C65.0654 9.49003 65.5254 9.38003 66.0454 9.38003C67.1954 9.38003 68.0104 9.82503 68.4904 10.715C68.7604 10.305 69.1204 9.98003 69.5704 9.74003C70.0304 9.50003 70.5304 9.38003 71.0704 9.38003C72.0404 9.38003 72.7854 9.67003 73.3054 10.25C73.8254 10.83 74.0854 11.68 74.0854 12.8V17H72.1654V12.98C72.1654 12.34 72.0404 11.85 71.7904 11.51C71.5504 11.17 71.1754 11 70.6654 11C70.1454 11 69.7254 11.19 69.4054 11.57C69.0954 11.95 68.9404 12.48 68.9404 13.16V17H67.0204V12.98C67.0204 12.34 66.8954 11.85 66.6454 11.51C66.3954 11.17 66.0104 11 65.4904 11C64.9804 11 64.5654 11.19 64.2454 11.57C63.9354 11.95 63.7804 12.48 63.7804 13.16V17H61.8604ZM76.9432 8.40503C76.5932 8.40503 76.3032 8.30003 76.0732 8.09003C75.8532 7.88003 75.7432 7.61503 75.7432 7.29503C75.7432 6.97504 75.8532 6.71504 76.0732 6.51504C76.3032 6.30504 76.5932 6.20004 76.9432 6.20004C77.2932 6.20004 77.5782 6.30504 77.7982 6.51504C78.0282 6.71504 78.1432 6.97504 78.1432 7.29503C78.1432 7.61503 78.0282 7.88003 77.7982 8.09003C77.5782 8.30003 77.2932 8.40503 76.9432 8.40503ZM75.9832 17V9.56003H77.9032V17H75.9832ZM82.9822 17.18C82.3222 17.18 81.7422 17.075 81.2422 16.865C80.7422 16.645 80.3422 16.345 80.0422 15.965C79.7422 15.585 79.5622 15.145 79.5022 14.645H81.4372C81.4972 14.935 81.6572 15.185 81.9172 15.395C82.1872 15.595 82.5322 15.695 82.9522 15.695C83.3722 15.695 83.6772 15.61 83.8672 15.44C84.0672 15.27 84.1672 15.075 84.1672 14.855C84.1672 14.535 84.0272 14.32 83.7472 14.21C83.4672 14.09 83.0772 13.975 82.5772 13.865C82.2572 13.795 81.9322 13.71 81.6022 13.61C81.2722 13.51 80.9672 13.385 80.6872 13.235C80.4172 13.075 80.1972 12.875 80.0272 12.635C79.8572 12.385 79.7722 12.08 79.7722 11.72C79.7722 11.06 80.0322 10.505 80.5522 10.055C81.0822 9.60503 81.8222 9.38003 82.7722 9.38003C83.6522 9.38003 84.3522 9.58503 84.8722 9.99503C85.4022 10.405 85.7172 10.97 85.8172 11.69H84.0022C83.8922 11.14 83.4772 10.865 82.7572 10.865C82.3972 10.865 82.1172 10.935 81.9172 11.075C81.7272 11.215 81.6322 11.39 81.6322 11.6C81.6322 11.82 81.7772 11.995 82.0672 12.125C82.3572 12.255 82.7422 12.375 83.2222 12.485C83.7422 12.605 84.2172 12.74 84.6472 12.89C85.0872 13.03 85.4372 13.245 85.6972 13.535C85.9572 13.815 86.0872 14.22 86.0872 14.75C86.0972 15.21 85.9772 15.625 85.7272 15.995C85.4772 16.365 85.1172 16.655 84.6472 16.865C84.1772 17.075 83.6222 17.18 82.9822 17.18Z" fill="#F1F5FB"/>
</svg>
