<?xml version="1.0" encoding="UTF-8"?>
<svg width="108" height="32" viewBox="0 0 108 32" fill="none" xmlns="http://www.w3.org/2000/svg">
<path d="M31.9601 26.6334C31.9601 29.563 29.5631 31.9601 26.6334 31.9601H5.32671C2.39703 31.9601 3.05176e-05 29.563 3.05176e-05 26.6334V5.32668C3.05176e-05 2.397 2.39703 0 5.32671 0H26.6334C29.5631 0 31.9601 2.397 31.9601 5.32668V26.6334Z" fill="#06B6D4"/>
<path d="M16.2222 10.6665C13.852 10.6665 12.3702 11.8518 11.7778 14.2221C12.6667 13.0367 13.7036 12.5923 14.8889 12.8887C15.5653 13.0576 16.0484 13.5483 16.5835 14.0914C17.4547 14.9758 18.4635 15.9998 20.6667 15.9998C23.0369 15.9998 24.5187 14.8145 25.1111 12.4443C24.2222 13.6296 23.1853 14.0741 22 13.7776C21.324 13.6087 20.8404 13.1181 20.3053 12.5749C19.4342 11.6905 18.4253 10.6665 16.2222 10.6665ZM11.7778 15.9998C9.40755 15.9998 7.92577 17.1852 7.33333 19.5554C8.22222 18.3701 9.25911 17.9256 10.4444 18.2221C11.1204 18.3909 11.604 18.8816 12.1391 19.4247C13.0102 20.3092 14.0191 21.3332 16.2222 21.3332C18.5924 21.3332 20.0742 20.1478 20.6667 17.7776C19.7778 18.9629 18.7409 19.4074 17.5555 19.1109C16.8795 18.9421 16.396 18.4514 15.8609 17.9083C14.9898 17.0238 13.9809 15.9998 11.7778 15.9998Z" fill="white"/>
<path d="M44.266 18H46.39V7.308H50.188V5.4H40.468V7.308H44.266V18ZM53.3815 18.162C54.6235 18.162 55.5775 17.694 56.1175 16.902H56.1895L56.3335 18H58.1335V11.808C58.1335 9.972 56.7475 8.55 54.2995 8.55C51.9595 8.55 50.5735 9.864 50.5735 11.628H52.5175C52.5355 10.872 53.1295 10.242 54.2635 10.242C55.5595 10.242 56.0995 10.962 56.0995 11.826V12.384H53.9395C51.2755 12.384 50.1415 13.644 50.1415 15.264C50.1415 16.902 51.3295 18.162 53.3815 18.162ZM53.8495 16.524C52.7335 16.524 52.1935 15.948 52.1935 15.192C52.1935 14.364 52.8055 13.86 54.0295 13.86H56.0995V14.49C56.0995 15.588 55.2175 16.524 53.8495 16.524ZM60.4896 7.146H62.7216V4.932H60.4896V7.146ZM60.5796 18H62.6316V8.712H60.5796V18ZM65.0796 18H67.1316V4.68H65.0796V18ZM71.0196 18H73.4856L75.3396 11.16H75.4116L77.1936 18H79.6596L82.1256 8.892V8.712H80.0916L78.4356 15.552H78.3636L76.5816 8.712H74.1156L72.3336 15.552H72.2616L70.6056 8.712H68.5536V8.892L71.0196 18ZM83.64 7.146H85.872V4.932H83.64V7.146ZM83.73 18H85.782V8.712H83.73V18ZM88.23 18H90.282V12.87C90.282 11.322 91.11 10.404 92.406 10.404C93.702 10.404 94.296 11.142 94.296 12.438V18H96.348V11.934C96.348 9.846 95.07 8.55 93 8.55C91.668 8.55 90.786 9.126 90.282 9.918H90.21L90.048 8.712H88.23V18ZM102.052 18.162C103.402 18.162 104.248 17.586 104.716 16.884H104.788L105.022 18H106.84V4.68H104.788V9.828H104.716C104.248 9.126 103.402 8.55 102.052 8.55C99.5505 8.55 98.2005 10.584 98.1825 13.338C98.2005 16.254 99.6585 18.162 102.052 18.162ZM102.556 16.344C100.882 16.344 100.27 14.976 100.27 13.338C100.27 11.736 100.864 10.368 102.556 10.368C104.212 10.368 104.86 11.736 104.86 13.338C104.86 14.958 104.194 16.344 102.556 16.344Z" fill="white"/>
<path d="M41.486 30H45.653V29.064H42.881V29.028L44.429 27.372C45.203 26.544 45.554 26.049 45.554 25.365C45.554 24.339 44.762 23.592 43.529 23.592C42.26 23.592 41.468 24.366 41.468 25.581H42.485C42.485 24.861 42.908 24.51 43.529 24.51C44.168 24.51 44.501 24.87 44.501 25.401C44.501 25.896 44.24 26.202 43.601 26.895L41.486 29.172V30ZM46.61 30H47.798V28.83H46.61V30ZM51.1209 30.081C52.7859 30.081 53.4339 28.713 53.4339 26.832C53.4339 24.96 52.7859 23.592 51.1209 23.592C49.4559 23.592 48.8079 24.96 48.8079 26.832C48.8079 28.713 49.4559 30.081 51.1209 30.081ZM51.1209 29.163C50.1309 29.163 49.8609 28.209 49.8609 26.832C49.8609 25.464 50.1399 24.51 51.1209 24.51C52.1019 24.51 52.3809 25.464 52.3809 26.832C52.3809 28.209 52.1109 29.163 51.1209 29.163Z" fill="#D9E3F5"/>
</svg>
