<?xml version="1.0" encoding="UTF-8"?>
<svg width="116" height="24" viewBox="0 0 116 24" fill="none" xmlns="http://www.w3.org/2000/svg">
<rect width="24" height="24" rx="3" fill="#526172"/>
<path d="M11.9198 18C11.0932 18 10.2398 17.8695 9.35982 17.6083C8.49315 17.3353 7.70648 16.914 6.99982 16.3442L8.95982 14.2433C9.42649 14.5757 9.92649 14.8487 10.4598 15.0623C11.0065 15.2641 11.5198 15.365 11.9998 15.365C12.5198 15.365 12.8932 15.2938 13.1198 15.1513C13.3598 15.0089 13.4798 14.8071 13.4798 14.546C13.4798 14.4036 13.4398 14.2849 13.3598 14.1899C13.2798 14.095 13.1598 14.0059 12.9998 13.9229C12.8532 13.8398 12.6732 13.7626 12.4598 13.6914C12.2465 13.6083 11.9998 13.5193 11.7198 13.4243L10.0998 12.819C9.75315 12.7003 9.41982 12.546 9.09982 12.3561C8.77982 12.1543 8.49982 11.9229 8.25982 11.6617C8.01982 11.3887 7.82648 11.0801 7.67982 10.7359C7.54648 10.3917 7.47982 10.0119 7.47982 9.59644C7.47982 9.09793 7.59982 8.63502 7.83982 8.20772C8.07982 7.76855 8.41315 7.38873 8.83982 7.06825C9.26649 6.73591 9.77315 6.47478 10.3598 6.28487C10.9598 6.09496 11.6132 6 12.3198 6C13.0665 6 13.8198 6.12463 14.5798 6.37389C15.3532 6.62315 16.0398 7.01484 16.6398 7.54896L14.9198 9.47182C14.4798 9.19882 14.0532 8.9911 13.6398 8.84867C13.2398 8.70624 12.7998 8.63502 12.3198 8.63502C11.8932 8.63502 11.5598 8.7003 11.3198 8.83086C11.0798 8.96143 10.9598 9.15727 10.9598 9.4184C10.9598 9.6914 11.1265 9.90505 11.4598 10.0594C11.8065 10.2018 12.2798 10.3739 12.8798 10.5757L14.4598 11.1276C15.2732 11.4125 15.8998 11.8101 16.3398 12.3205C16.7798 12.8309 16.9998 13.4896 16.9998 14.2967C16.9998 14.7834 16.8865 15.2522 16.6598 15.7033C16.4332 16.1543 16.0998 16.5519 15.6598 16.8962C15.2332 17.2285 14.7065 17.4956 14.0798 17.6973C13.4532 17.8991 12.7332 18 11.9198 18Z" fill="white"/>
<path d="M34.9299 18.2239C34.1335 18.2239 33.337 18.0808 32.5406 17.7945C31.7566 17.4959 31.0535 17.0541 30.4312 16.4692L31.9992 14.5839C32.4348 14.9572 32.9139 15.2621 33.4366 15.4985C33.9717 15.735 34.4943 15.8532 35.0046 15.8532C35.577 15.8532 36.0001 15.7474 36.2739 15.5359C36.5601 15.3243 36.7032 15.0381 36.7032 14.6772C36.7032 14.4905 36.6597 14.3288 36.5726 14.1919C36.4979 14.055 36.3797 13.9368 36.2179 13.8372C36.0686 13.7252 35.8819 13.6256 35.6579 13.5385C35.4463 13.439 35.2099 13.3332 34.9486 13.2212L33.3619 12.5492C33.0508 12.4248 32.7459 12.263 32.4472 12.0639C32.161 11.8648 31.8997 11.6345 31.6632 11.3732C31.4392 11.0994 31.2588 10.7883 31.1219 10.4399C30.985 10.079 30.9166 9.67453 30.9166 9.22653C30.9166 8.72875 31.0223 8.26209 31.2339 7.82653C31.4455 7.37853 31.7441 6.99275 32.1299 6.66919C32.5157 6.33319 32.9699 6.07186 33.4926 5.88519C34.0277 5.69853 34.6126 5.60519 35.2472 5.60519C35.9566 5.60519 36.6535 5.74208 37.3379 6.01586C38.0348 6.28964 38.6446 6.68786 39.1672 7.21053L37.7672 8.94653C37.369 8.63542 36.9708 8.39897 36.5726 8.2372C36.1743 8.06298 35.7326 7.97586 35.2472 7.97586C34.7743 7.97586 34.3948 8.07542 34.1086 8.27453C33.8348 8.4612 33.6979 8.72875 33.6979 9.0772C33.6979 9.26387 33.7415 9.42564 33.8286 9.56253C33.9281 9.68698 34.0588 9.8052 34.2206 9.9172C34.3948 10.0168 34.5939 10.1163 34.8179 10.2159C35.0419 10.303 35.2846 10.4025 35.5459 10.5145L37.1139 11.1492C37.8606 11.4479 38.4455 11.8585 38.8686 12.3812C39.3041 12.9039 39.5219 13.5945 39.5219 14.4532C39.5219 14.9634 39.4161 15.4488 39.2046 15.9092C39.0055 16.3572 38.7068 16.7554 38.3086 17.1039C37.9228 17.4399 37.4437 17.7137 36.8712 17.9252C36.2988 18.1243 35.6517 18.2239 34.9299 18.2239ZM41.3636 17.9999V4.91453H44.1076V8.1252L43.977 9.78653C44.3254 9.47542 44.7299 9.1892 45.1903 8.92786C45.6508 8.65409 46.1983 8.5172 46.833 8.5172C47.841 8.5172 48.569 8.84698 49.017 9.50653C49.4774 10.1661 49.7077 11.0808 49.7077 12.2505V17.9999H46.9636V12.6052C46.9636 11.9332 46.8703 11.4728 46.6836 11.2239C46.5094 10.975 46.2232 10.8505 45.825 10.8505C45.4765 10.8505 45.1779 10.9314 44.929 11.0932C44.6801 11.2425 44.4063 11.4603 44.1076 11.7465V17.9999H41.3636ZM54.8091 18.2239C53.8011 18.2239 53.0668 17.8941 52.6064 17.2345C52.1584 16.575 51.9344 15.6603 51.9344 14.4905V8.7412H54.6784V14.1359C54.6784 14.8079 54.7717 15.2683 54.9584 15.5172C55.1451 15.7661 55.4375 15.8905 55.8357 15.8905C56.1842 15.8905 56.4766 15.8097 56.7131 15.6479C56.9495 15.4861 57.2046 15.2248 57.4784 14.8639V8.7412H60.2224V17.9999H57.9824L57.7771 16.7119H57.7211C57.3228 17.1848 56.8935 17.5581 56.4331 17.8319C55.9851 18.0932 55.4437 18.2239 54.8091 18.2239ZM63.1038 17.9999V10.8879H61.8718V8.8532L63.1038 8.75986V8.25586C63.1038 7.77053 63.1598 7.31008 63.2718 6.87453C63.3962 6.43897 63.5953 6.05942 63.8691 5.73586C64.1429 5.4123 64.4976 5.15719 64.9331 4.97053C65.3687 4.78386 65.8976 4.69052 66.5198 4.69052C66.9056 4.69052 67.254 4.72786 67.5651 4.80253C67.8887 4.87719 68.1562 4.95186 68.3678 5.02653L67.8638 7.04253C67.5153 6.91808 67.198 6.85586 66.9118 6.85586C66.5758 6.85586 66.3144 6.96164 66.1278 7.1732C65.9411 7.37231 65.8478 7.70831 65.8478 8.1812V8.7412H67.5091V10.8879H65.8478V17.9999H63.1038ZM69.4658 17.9999V10.8879H68.2338V8.8532L69.4658 8.75986V8.25586C69.4658 7.77053 69.5218 7.31008 69.6338 6.87453C69.7582 6.43897 69.9573 6.05942 70.2311 5.73586C70.5049 5.4123 70.8595 5.15719 71.2951 4.97053C71.7307 4.78386 72.2595 4.69052 72.8818 4.69052C73.2675 4.69052 73.616 4.72786 73.9271 4.80253C74.2507 4.87719 74.5182 4.95186 74.7298 5.02653L74.2258 7.04253C73.8773 6.91808 73.56 6.85586 73.2738 6.85586C72.9378 6.85586 72.6764 6.96164 72.4898 7.1732C72.3031 7.37231 72.2098 7.70831 72.2098 8.1812V8.7412H73.8711V10.8879H72.2098V17.9999H69.4658ZM77.8811 18.2239C77.4082 18.2239 77.01 18.1492 76.6864 17.9999C76.3629 17.8505 76.1015 17.6452 75.9024 17.3839C75.7157 17.1101 75.5789 16.7865 75.4917 16.4132C75.4046 16.0274 75.3611 15.5981 75.3611 15.1252V4.91453H78.1051V15.2372C78.1051 15.5234 78.1549 15.7225 78.2544 15.8345C78.3664 15.9465 78.4784 16.0025 78.5904 16.0025C78.6526 16.0025 78.7024 16.0025 78.7398 16.0025C78.7895 16.0025 78.8518 15.9901 78.9264 15.9652L79.2624 17.9999C79.1131 18.0621 78.9202 18.1119 78.6838 18.1492C78.4598 18.199 78.1922 18.2239 77.8811 18.2239ZM84.8462 18.2239C84.1867 18.2239 83.5707 18.1181 82.9982 17.9065C82.4258 17.6825 81.928 17.3652 81.5049 16.9545C81.0818 16.5314 80.752 16.0212 80.5156 15.4239C80.2791 14.8265 80.1609 14.1421 80.1609 13.3705C80.1609 12.6239 80.2853 11.9519 80.5342 11.3545C80.7831 10.7448 81.1067 10.2345 81.5049 9.82387C81.9156 9.40075 82.3822 9.0772 82.9049 8.8532C83.4276 8.6292 83.9689 8.5172 84.5289 8.5172C85.1885 8.5172 85.7609 8.6292 86.2462 8.8532C86.744 9.0772 87.1547 9.38831 87.4782 9.78653C87.8142 10.1848 88.0631 10.6576 88.2249 11.2052C88.3867 11.7403 88.4676 12.3252 88.4676 12.9599C88.4676 13.2088 88.4551 13.4452 88.4302 13.6692C88.4054 13.8932 88.3805 14.0612 88.3556 14.1732H82.8116C82.936 14.8452 83.2098 15.343 83.6329 15.6665C84.0685 15.9777 84.5974 16.1332 85.2196 16.1332C85.8791 16.1332 86.5449 15.9279 87.2169 15.5172L88.1316 17.1785C87.6587 17.5021 87.1298 17.7572 86.5449 17.9439C85.9725 18.1305 85.4062 18.2239 84.8462 18.2239ZM82.7929 12.3625H86.1342C86.1342 11.8399 86.016 11.4168 85.7796 11.0932C85.5431 10.7696 85.1449 10.6079 84.5849 10.6079C84.1494 10.6079 83.7636 10.751 83.4276 11.0372C83.104 11.3234 82.8925 11.7652 82.7929 12.3625ZM99.122 18.2239C97.5416 18.2239 96.3345 17.7572 95.5007 16.8239C94.6669 15.8905 94.25 14.4034 94.25 12.3625V5.82919H97.0127V12.6425C97.0127 13.8372 97.1931 14.671 97.554 15.1439C97.9149 15.6168 98.4376 15.8532 99.122 15.8532C99.8065 15.8532 100.335 15.6168 100.709 15.1439C101.082 14.671 101.269 13.8372 101.269 12.6425V5.82919H103.919V12.3625C103.919 14.4034 103.509 15.8905 102.687 16.8239C101.878 17.7572 100.69 18.2239 99.122 18.2239ZM105.324 17.9999L108.703 11.7465L105.53 5.82919H108.591L109.655 8.1252C109.792 8.41142 109.929 8.71631 110.066 9.03987C110.203 9.35098 110.358 9.69942 110.532 10.0852H110.607C110.744 9.69942 110.875 9.35098 110.999 9.03987C111.136 8.71631 111.267 8.41142 111.391 8.1252L112.362 5.82919H115.292L112.138 11.8772L115.498 17.9999H112.436L111.223 15.5172C111.074 15.1937 110.924 14.8763 110.775 14.5652C110.638 14.2417 110.483 13.8932 110.308 13.5199H110.234C110.097 13.8932 109.96 14.2417 109.823 14.5652C109.686 14.8763 109.549 15.1937 109.412 15.5172L108.274 17.9999H105.324Z" fill="white"/>
</svg>
