<?xml version="1.0" encoding="UTF-8"?>
<svg width="120" height="28" viewBox="0 0 120 28" fill="none" xmlns="http://www.w3.org/2000/svg">
<path d="M33.7866 21V18.9016L40.6812 8.30282H33.8509V6.01176H43.8502V8.11012L36.9127 18.7089H43.893V21H33.7866ZM50.9676 21.2569C49.9398 21.2569 49.012 21.0214 48.184 20.5504C47.3704 20.0793 46.7209 19.4298 46.2356 18.6019C45.7645 17.7597 45.529 16.789 45.529 15.6899C45.529 14.5907 45.7716 13.6272 46.257 12.7993C46.7423 11.9571 47.3918 11.3005 48.2054 10.8294C49.0334 10.3584 49.9612 10.1228 50.989 10.1228C52.0025 10.1228 52.916 10.3584 53.7297 10.8294C54.5576 11.3005 55.2071 11.9571 55.6781 12.7993C56.1635 13.6272 56.4061 14.5907 56.4061 15.6899C56.4061 16.789 56.1635 17.7597 55.6781 18.6019C55.2071 19.4298 54.5576 20.0793 53.7297 20.5504C52.9018 21.0214 51.9811 21.2569 50.9676 21.2569ZM50.9676 18.8802C51.6813 18.8802 52.3022 18.6162 52.8304 18.088C53.3585 17.5456 53.6226 16.7462 53.6226 15.6899C53.6226 14.6336 53.3585 13.8413 52.8304 13.3132C52.3022 12.7707 51.6884 12.4995 50.989 12.4995C50.261 12.4995 49.6329 12.7707 49.1047 13.3132C48.5909 13.8413 48.3339 14.6336 48.3339 15.6899C48.3339 16.7462 48.5909 17.5456 49.1047 18.088C49.6329 18.6162 50.2538 18.8802 50.9676 18.8802ZM62.8178 21.2569C61.8757 21.2569 61.0478 21.1071 60.334 20.8073C59.6203 20.4933 59.0493 20.065 58.6211 19.5226C58.1929 18.9802 57.9359 18.3521 57.8503 17.6384H60.6124C60.698 18.0523 60.9264 18.4092 61.2976 18.7089C61.683 18.9944 62.1754 19.1372 62.775 19.1372C63.3745 19.1372 63.8099 19.0158 64.0811 18.7732C64.3666 18.5305 64.5093 18.2522 64.5093 17.9381C64.5093 17.4813 64.3095 17.1744 63.9098 17.0174C63.5101 16.8461 62.9534 16.682 62.2397 16.5249C61.7829 16.425 61.319 16.3037 60.8479 16.1609C60.3769 16.0182 59.9415 15.8398 59.5418 15.6256C59.1564 15.3973 58.8423 15.1118 58.5997 14.7692C58.357 14.4123 58.2357 13.9769 58.2357 13.4631C58.2357 12.5209 58.6068 11.7287 59.3491 11.0864C60.1056 10.444 61.162 10.1228 62.518 10.1228C63.7742 10.1228 64.7734 10.4155 65.5157 11.0007C66.2722 11.586 66.7219 12.3925 66.8646 13.4202H64.2738C64.1168 12.6351 63.5244 12.2426 62.4966 12.2426C61.9827 12.2426 61.5831 12.3425 61.2976 12.5424C61.0263 12.7422 60.8907 12.992 60.8907 13.2918C60.8907 13.6058 61.0977 13.8556 61.5117 14.0412C61.9256 14.2267 62.4752 14.398 63.1604 14.5551C63.9027 14.7264 64.5807 14.9191 65.1945 15.1332C65.8226 15.333 66.3222 15.6399 66.6933 16.0539C67.0645 16.4536 67.25 17.0317 67.25 17.7882C67.2643 18.4449 67.093 19.0373 66.7362 19.5654C66.3793 20.0936 65.8654 20.5075 65.1945 20.8073C64.5236 21.1071 63.7314 21.2569 62.8178 21.2569ZM69.2497 25.7106V10.3798H71.6906L71.9904 11.9C72.333 11.4289 72.7826 11.015 73.3393 10.6581C73.9103 10.3013 74.6455 10.1228 75.5448 10.1228C76.544 10.1228 77.4361 10.3655 78.2212 10.8508C79.0063 11.3362 79.6273 11.9999 80.084 12.8421C80.5408 13.6843 80.7692 14.6407 80.7692 15.7113C80.7692 16.7819 80.5408 17.7383 80.084 18.5805C79.6273 19.4084 79.0063 20.065 78.2212 20.5504C77.4361 21.0214 76.544 21.2569 75.5448 21.2569C74.7454 21.2569 74.0459 21.1071 73.4464 20.8073C72.8469 20.5075 72.3615 20.0864 71.9904 19.544V25.7106H69.2497ZM74.9666 18.8588C75.8374 18.8588 76.5582 18.5662 77.1292 17.9809C77.7002 17.3957 77.9857 16.6391 77.9857 15.7113C77.9857 14.7835 77.7002 14.0198 77.1292 13.4202C76.5582 12.8207 75.8374 12.5209 74.9666 12.5209C74.0816 12.5209 73.3536 12.8207 72.7826 13.4202C72.2259 14.0055 71.9476 14.762 71.9476 15.6899C71.9476 16.6177 72.2259 17.3814 72.7826 17.9809C73.3536 18.5662 74.0816 18.8588 74.9666 18.8588ZM86.4507 21.2569C85.5371 21.2569 84.7877 21.1142 84.2025 20.8287C83.6172 20.5289 83.1818 20.1364 82.8963 19.6511C82.6109 19.1657 82.4681 18.6304 82.4681 18.0452C82.4681 17.0602 82.8535 16.2609 83.6243 15.6471C84.3952 15.0333 85.5514 14.7264 87.0931 14.7264H89.7909V14.4694C89.7909 13.7414 89.584 13.2061 89.17 12.8635C88.756 12.5209 88.2421 12.3496 87.6283 12.3496C87.0716 12.3496 86.5863 12.4853 86.1723 12.7565C85.7584 13.0134 85.5014 13.3988 85.4015 13.9127H82.7251C82.7964 13.1419 83.0534 12.471 83.4959 11.9C83.9527 11.329 84.5379 10.8936 85.2516 10.5939C85.9654 10.2798 86.7647 10.1228 87.6498 10.1228C89.1629 10.1228 90.3548 10.5011 91.2255 11.2576C92.0963 12.0142 92.5316 13.0848 92.5316 14.4694V21H90.1978L89.9408 19.2871C89.6268 19.858 89.1843 20.3291 88.6133 20.7002C88.0566 21.0714 87.3357 21.2569 86.4507 21.2569ZM87.0716 19.1158C87.8567 19.1158 88.4634 18.8588 88.8916 18.3449C89.3341 17.8311 89.6125 17.1958 89.7267 16.4393H87.3928C86.6648 16.4393 86.1438 16.5749 85.8298 16.8461C85.5157 17.1031 85.3587 17.4242 85.3587 17.8096C85.3587 18.2236 85.5157 18.5448 85.8298 18.7732C86.1438 19.0016 86.5578 19.1158 87.0716 19.1158ZM99.9219 21.2569C98.837 21.2569 97.8806 21.0214 97.0527 20.5504C96.2248 20.0793 95.5682 19.4227 95.0828 18.5805C94.6118 17.7383 94.3762 16.7747 94.3762 15.6899C94.3762 14.605 94.6118 13.6415 95.0828 12.7993C95.5682 11.9571 96.2248 11.3005 97.0527 10.8294C97.8806 10.3584 98.837 10.1228 99.9219 10.1228C101.278 10.1228 102.42 10.4797 103.348 11.1934C104.276 11.8929 104.868 12.8635 105.125 14.1054H102.234C102.092 13.5915 101.806 13.1918 101.378 12.9064C100.964 12.6066 100.471 12.4567 99.9005 12.4567C99.1439 12.4567 98.5016 12.7422 97.9734 13.3132C97.4452 13.8842 97.1812 14.6764 97.1812 15.6899C97.1812 16.7034 97.4452 17.4956 97.9734 18.0666C98.5016 18.6376 99.1439 18.9231 99.9005 18.9231C100.471 18.9231 100.964 18.7803 101.378 18.4948C101.806 18.2093 102.092 17.8025 102.234 17.2744H105.125C104.868 18.4734 104.276 19.4369 103.348 20.1649C102.42 20.8929 101.278 21.2569 99.9219 21.2569ZM112.29 21.2569C111.219 21.2569 110.27 21.0285 109.442 20.5718C108.614 20.115 107.964 19.4726 107.493 18.6447C107.022 17.8168 106.787 16.8604 106.787 15.7755C106.787 14.6764 107.015 13.6986 107.472 12.8421C107.943 11.9856 108.585 11.3219 109.399 10.8508C110.227 10.3655 111.198 10.1228 112.311 10.1228C113.353 10.1228 114.274 10.3512 115.073 10.808C115.872 11.2648 116.493 11.8929 116.936 12.6922C117.393 13.4773 117.621 14.3552 117.621 15.3259C117.621 15.4829 117.614 15.6471 117.6 15.8184C117.6 15.9896 117.592 16.1681 117.578 16.3536H109.506C109.563 17.1816 109.849 17.8311 110.362 18.3021C110.891 18.7732 111.526 19.0087 112.268 19.0087C112.825 19.0087 113.289 18.8874 113.66 18.6447C114.045 18.3878 114.331 18.0595 114.516 17.6598H117.3C117.1 18.3307 116.765 18.9445 116.294 19.5012C115.837 20.0436 115.266 20.4718 114.581 20.7859C113.91 21.0999 113.146 21.2569 112.29 21.2569ZM112.311 12.3496C111.64 12.3496 111.048 12.5424 110.534 12.9278C110.02 13.2989 109.692 13.8699 109.549 14.6407H114.838C114.795 13.9413 114.538 13.3845 114.067 12.9706C113.596 12.5566 113.01 12.3496 112.311 12.3496Z" fill="white"/>
<path d="M12.3535 1.64697C19.1883 1.71854 24.7065 7.22189 24.7065 13.9999C24.7065 20.7779 19.1883 26.2813 12.3535 26.3529L21.1885 13.9999L12.3535 1.64697Z" fill="#8F69FF"/>
<path d="M12.2221 1.64799C17.7639 1.73349 22.2353 7.23089 22.2353 13.9999C22.2353 20.7689 17.7639 26.2663 12.2221 26.3518C12.1783 26.3524 12.1345 26.3529 12.0907 26.3529C5.41334 26.3529 0 20.8221 0 13.9999C0 7.17771 5.41334 1.64697 12.0907 1.64697C12.1345 1.64697 12.1783 1.64746 12.2221 1.64799ZM18.1483 13.9999C18.1483 10.5819 15.4363 7.81099 12.0907 7.81099C8.74519 7.81099 6.03318 10.5819 6.03318 13.9999C6.03318 17.418 8.74524 20.1888 12.0907 20.1888C15.4362 20.1888 18.1483 17.418 18.1483 13.9999Z" fill="#3957FF"/>
</svg>
