<?xml version="1.0" encoding="UTF-8"?>
<svg width="71" height="24" viewBox="0 0 71 24" fill="none" xmlns="http://www.w3.org/2000/svg">
<rect width="24" height="24" rx="4.5" fill="#0A3AA0"/>
<path d="M4.53344 14.8798C4.74063 16.0569 5.86047 16.843 7.03469 16.6358C8.20891 16.4282 8.99313 15.3054 8.78641 14.1283C8.57922 12.9512 9.36391 11.8284 10.5381 11.6208C11.7124 11.4131 12.4966 10.2903 12.2899 9.11324C12.0827 7.93617 10.9628 7.15005 9.7886 7.35722C8.61438 7.56439 7.82922 8.68768 8.03641 9.86475C8.2436 11.0418 7.45891 12.1646 6.28469 12.3723C5.11047 12.5799 4.32625 13.7027 4.53344 14.8798Z" fill="white"/>
<path d="M9.86137 14.8792C10.0686 16.0563 11.1884 16.8424 12.3626 16.6352C13.5368 16.4276 14.3211 15.3047 14.1143 14.1277C13.9071 12.9506 14.6918 11.8278 15.8661 11.6202C17.0403 11.4125 17.8245 10.2897 17.6178 9.11263C17.4106 7.93556 16.2907 7.14944 15.1165 7.35661C13.9423 7.56425 13.1581 8.68707 13.3648 9.86414C13.572 11.0412 12.7873 12.164 11.6131 12.3717C10.4389 12.5793 9.65418 13.7021 9.86137 14.8792Z" fill="white"/>
<path d="M17.3408 16.6763C18.5332 16.6763 19.4998 15.7071 19.4998 14.5115C19.4998 13.316 18.5332 12.3468 17.3408 12.3468C16.1483 12.3468 15.1817 13.316 15.1817 14.5115C15.1817 15.7071 16.1483 16.6763 17.3408 16.6763Z" fill="white"/>
<path d="M31.076 6.8409V17.75H32.9723V10.2393H33.0735L36.0884 17.718H37.5053L40.5202 10.2553H40.6215V17.75H42.5178V6.8409H40.0994L36.8608 14.7457H36.733L33.4943 6.8409H31.076ZM48.2067 17.9098C50.1136 17.9098 51.424 16.9776 51.7649 15.5554L49.9645 15.353C49.7035 16.0455 49.0643 16.4077 48.2333 16.4077C46.9869 16.4077 46.1612 15.5874 46.1453 14.1864H51.8448V13.5952C51.8448 10.7241 50.119 9.46164 48.1055 9.46164C45.7617 9.46164 44.233 11.1822 44.233 13.707C44.233 16.2745 45.7404 17.9098 48.2067 17.9098ZM46.1506 12.8867C46.2092 11.8427 46.9815 10.9638 48.1321 10.9638C49.2401 10.9638 49.9858 11.7734 49.9965 12.8867H46.1506ZM57.5617 9.56818H55.9477V7.60795H54.0195V9.56818H52.8582V11.0597H54.0195V15.6087C54.0088 17.1481 55.1274 17.9045 56.5763 17.8619C57.1249 17.8459 57.5031 17.7393 57.7109 17.6701L57.3859 16.1626C57.2794 16.1893 57.061 16.2372 56.8213 16.2372C56.3366 16.2372 55.9477 16.0668 55.9477 15.2891V11.0597H57.5617V9.56818ZM59.1744 17.75H61.1026V9.56818H59.1744V17.75ZM60.1438 8.40695C60.7564 8.40695 61.2571 7.9382 61.2571 7.36292C61.2571 6.78231 60.7564 6.31356 60.1438 6.31356C59.5259 6.31356 59.0252 6.78231 59.0252 7.36292C59.0252 7.9382 59.5259 8.40695 60.1438 8.40695ZM69.5521 11.7308C69.2858 10.3459 68.1778 9.46164 66.2602 9.46164C64.2893 9.46164 62.947 10.4311 62.9523 11.9439C62.947 13.1371 63.6821 13.9254 65.2535 14.2504L66.6491 14.5433C67.4001 14.7084 67.7517 15.0121 67.7517 15.4755C67.7517 16.0348 67.1445 16.4556 66.2283 16.4556C65.344 16.4556 64.7688 16.0721 64.6036 15.337L62.7233 15.5181C62.963 17.0202 64.2254 17.9098 66.2336 17.9098C68.2791 17.9098 69.7226 16.8498 69.7279 15.2997C69.7226 14.1332 68.9715 13.4194 67.4268 13.0838L66.0312 12.7855C65.2002 12.5991 64.87 12.3114 64.8753 11.8374C64.87 11.2834 65.4825 10.8999 66.2869 10.8999C67.1764 10.8999 67.6452 11.3846 67.7943 11.9226L69.5521 11.7308Z" fill="white"/>
</svg>
